<?xml version="1.0" encoding="UTF-8"?><svg xmlns="http://www.w3.org/2000/svg" viewBox="0 0 222.19 250.61"><defs><style>.cls-1{fill:#fefefe;}.cls-2{fill:#fdfdfd;}.cls-3{fill:#7d7e7e;}.cls-4{fill:#7e7f7f;}.cls-5{fill:#64a5f4;}.cls-6{fill:#7c7d7d;}.cls-7{fill:#dfeaf8;}.cls-8{fill:#63a4f4;}.cls-9{fill:#2f609c;}</style></defs><g id="Layer_23"><path class="cls-7" d="m17.3,167.88c.69,1.3,1.39,2.59,2.08,3.89-.04.29-.08.59-.12.89-.84-1.58-1.68-3.17-2.52-4.75.19,0,.37-.01.56-.02Z"/></g><g id="Layer_24"><path class="cls-7" d="m13.34,157.77c0-.57,0-1.14,0-1.72,0,.57,0,1.14,0,1.72Z"/></g><g id="Layer_25"><path class="cls-7" d="m13.63,160.08c-.06-.29-.12-.59-.18-.88.06.29.12.59.18.88Z"/></g><g id="Layer_26"><path class="cls-7" d="m13.48,155.21c.05-.2.1-.4.16-.6-.05.2-.1.4-.16.6Z"/></g><g id="Layer_27"><path class="cls-1" d="m181.86,78.66c-.2.2-.4.39-.6.59.2-.2.4-.39.6-.59Z"/></g><g id="Layer_15"><path class="cls-1" d="m182.14,78.08c-.1.2-.2.4-.3.6.1-.2.2-.4.3-.6Z"/></g><g id="Layer_16"><path class="cls-1" d="m181.27,79.24c-.1.2-.2.4-.3.6.1-.2.2-.4.3-.6Z"/></g><g id="Layer_17"><path class="cls-1" d="m180.98,79.82c-.08.19-.17.38-.25.57.08-.19.17-.38.25-.57Z"/></g><g id="Layer_19"><path class="cls-1" d="m17.3,167.88c-.19,0-.37.01-.56.02.12-1.07.24-2.14.36-3.2.11-.31.22-.61.32-.92.97,1.4.21,2.74-.13,4.1Z"/></g><g id="Layer_20"><path class="cls-7" d="m17.43,163.78c-.11.31-.22.61-.32.92-.06-.29-.12-.58-.18-.87.16,0,.32-.01.49-.02l.02-.03Z"/></g><g id="Layer_21"><path class="cls-1" d="m17.41,163.8c-.16,0-.32.01-.49.02.05-.24.09-.48.14-.71.12.23.23.46.35.7Z"/></g><g id="Layer_22"><path class="cls-1" d="m16.77,162.67c.1.15.2.3.3.46-.1-.15-.2-.3-.3-.46Z"/></g><g id="Bubble_6"><path class="cls-3" d="m103.73,99.77c4.12-.01,7.44,3.15,7.42,7.05-.03,3.86-3.3,6.99-7.34,7.01-4.1.02-7.41-3.14-7.4-7.08.01-3.88,3.26-6.98,7.32-6.99Z"/></g><g id="Bubble_5"><path class="cls-3" d="m122.22,114.41c-4.04,0-7.31-3.12-7.34-6.99-.03-3.95,3.24-7.08,7.37-7.08,4.05,0,7.33,3.11,7.36,6.97.03,3.91-3.3,7.1-7.39,7.1Z"/></g><g id="Bubble_4"><path class="cls-3" d="m140.64,101.21c4.12-.02,7.45,3.13,7.44,7.03-.01,3.86-3.28,7-7.31,7.03-4.1.03-7.42-3.12-7.42-7.05,0-3.88,3.24-6.99,7.29-7.01Z"/></g><g id="Bubble_3"><path class="cls-3" d="m39.7,177.14c4.05,0,7.34,3.1,7.37,6.95.04,3.91-3.28,7.11-7.38,7.11-4.1,0-7.39-3.18-7.35-7.12.03-3.88,3.29-6.95,7.36-6.95Z"/></g><g id="Bubble_2"><path class="cls-3" d="m58.15,177.72c4.11,0,7.43,3.18,7.39,7.08-.04,3.86-3.32,6.98-7.36,6.99-4.1.01-7.4-3.16-7.37-7.1.02-3.88,3.27-6.96,7.34-6.97Z"/></g><g id="Bubble_1"><path class="cls-3" d="m76.69,178.58c4.04.02,7.32,3.15,7.32,7.01,0,3.91-3.33,7.08-7.43,7.06-4.04-.02-7.29-3.16-7.3-7.03,0-3.94,3.27-7.05,7.41-7.04Z"/></g><g id="Upper_Right_Bridge"><path class="cls-3" d="m180.42,80.72c.1-.11.21-.22.31-.34.08-.19.17-.38.25-.57,0,0-.01.02-.01.02.1-.2.2-.4.3-.6,0,0,0,0,0,0,.2-.2.4-.39.6-.59,0,0-.02.03-.02.03.1-.2.2-.4.3-.6,0,0-.02.02-.02.02.76-1.1,1.52-2.2,2.48-3.59,1.41,2.67,2.94,5.22,4.07,7.93.32.77-.45,2.05-.84,3.04-.76,1.95-1.61,3.86-2.38,5.69-1.64-3.42-3.34-6.94-5.03-10.46Z"/></g><g id="Bottom_Left_Bridge"><path class="cls-4" d="m17.06,163.11s.01.02.01.02c-.1-.15-.2-.3-.3-.46,0,0,0,.02,0,.02.08-.66.16-1.32.24-1.98.11.03.22.06.33.09,1.29,2.29,2.59,4.58,3.84,6.89.15.28.18.77.04,1.03-.56,1.04-1.22,2.03-1.85,3.04-.69-1.3-1.39-2.59-2.08-3.89.34-1.36,1.1-2.7.13-4.1l-.02.03c-.12-.23-.23-.46-.35-.7Z"/></g><g id="Loop"><path class="cls-6" d="m54.07,144.98c-.41-.99-.82-1.98-1.23-2.97,0-.49.16-1.04,0-1.47-1.73-4.62-3.5-9.22-5.3-13.81-.16-.4-.65-.66-.99-.99-.5-5.01-1.38-10.02-1.43-15.04-.09-9.54,2.74-18.48,6.82-27.02,6.9-14.45,17.69-25.1,31.91-32.33.33-.17.69-.29,1.28-.54.09,2.63-1.01,5.32,1.2,7.52-1.78,1.07-3.46,2-5.06,3.04-11.44,7.43-20.14,17.18-25.12,30.01-2.91,7.49-3.72,15.32-2.9,23.26.51,4.96,1.39,9.88,2.22,14.8.22,1.3.91,2.52,1.33,3.8.37,1.11,1.15,1.29,2.16,1.12,6.25-1,12.44-.83,18.56.9,8.93,2.52,15.84,7.73,19.34,16.34,2.56,6.3,1.71,14.81-7.11,18.2-3.42,1.32-6.8.95-10.16-.13-5.6-1.8-10.33-5.06-14.66-8.95-1.11-1-2.13-2.09-3.18-3.14-.14-.43-.19-.91-.43-1.28-1.81-2.75-3.68-5.46-5.49-8.21-.65-.99-1.18-2.07-1.77-3.11Zm14.31-4.12c-1.97.37-3.88.56-5.7,1.1-2.26.68-2.38,1.17-1.38,3.33,3.71,8.07,9.37,14.24,17.54,17.95,2.59,1.18,5.2,2.31,8.11,2.3,2.75,0,4.26-1.23,5.05-3.82.73-2.36.29-4.58-.71-6.71-3.36-7.16-9.5-10.87-16.71-13.09-1.99-.61-4.13-.73-6.2-1.07Z"/></g><g id="Bottom_Left_Speech"><path class="cls-3" d="m11.97,170.1c.82,4.13.52,8.13-1.4,11.93-1.37,2.71-1.36,2.8,1.47,3.75.99.33,2.02.51,3,.75.33,2.42.44,4.94,1.05,7.32,3.24,12.52,10.51,21.73,22.56,26.9,6.54,2.8,13.3,4.42,20.46,4.01,1.29-.07,2.59-.16,3.88-.33,1.51-.2,2.65.36,3.75,1.37,4.83,4.4,9.71,8.75,14.57,13.11.13-.04.26-.08.4-.13,0-.63.01-1.25,0-1.88-.1-4.81-.19-9.62-.32-14.42-.06-2.09.71-3.56,2.5-4.81,7.14-4.98,12.45-11.68,17.18-18.87.71-1.08,1.31-2.26,2.09-3.28.53-.7,1.21-1.37,1.98-1.77,1.73-.91,3.47.16,3.29,2.11-.12,1.24-.63,2.52-1.25,3.62-4.06,7.24-9.25,13.62-15.65,18.89-2.48,2.04-3.43,4.27-3.5,7.35-.16,6.58-.58,13.16-.9,19.74-.06,1.3-.15,2.59-.25,3.88-.1,1.2-1.03,1.66-2.01.89-1.81-1.43-3.57-2.92-5.28-4.47-4.88-4.42-9.71-8.9-14.62-13.3-.54-.48-1.43-.77-2.17-.8-5.47-.28-10.97-.38-16.31-1.75-7.43-1.9-14.75-4.18-21.07-8.71-10.33-7.4-16.26-17.45-17.6-30.15-.78-7.4.93-14.31,4.16-20.95Z"/></g><g id="Bottom_Right_Speech"><path class="cls-3" d="m188.27,110.62c1.78,1.39,3.45,2.81,5.25,4.05.78.54.74,1.13.7,1.84-.3,5.34-1.64,10.42-3.72,15.34-3.93,9.28-9.24,17.64-16.8,24.39-2.64,2.36-5.54,4.46-8.48,6.45-1.57,1.07-2.47,2.29-2.68,4.14-1.05,9.26-2.18,18.52-3.19,27.78-.67,6.12-1.16,12.25-1.79,18.37-.05.5-.58,1.27-.99,1.34-.66.12-1.58-.02-2.07-.43-1.76-1.49-3.39-3.13-5.06-4.72-9.34-8.87-18.68-17.75-28.03-26.62-1.68-1.59-1.92-3.31-.6-4.79,1.18-1.32,3.24-1.39,4.77,0,2.06,1.88,4.02,3.87,6.02,5.81,6.59,6.4,13.17,12.8,19.76,19.2.24.23.5.43,1,.85.23-2.23.44-4.25.65-6.26,1.02-9.9,2.04-19.79,3.06-29.69.15-1.43.4-2.87.36-4.31-.04-1.65.68-2.67,1.98-3.55,8.46-5.71,15.2-13.11,20.76-21.58,5.39-8.2,8.18-17.33,9.06-27.08.02-.23.04-.45.04-.53Z"/></g><g id="Right_Hat"><path class="cls-9" d="m202.03,47.68c.8,3.46,1.78,6.55,2.16,9.72.28,2.31-.25,4.71-.37,7.07-.06,1.17-.05,2.34-.01,3.5,0,.29.19.66.41.84,2.27,1.81,2.68,4.35,2.07,6.84-.59,2.39-2.05,4.43-4.78,5.07-.61.14-1.18.48-1.77.73,0,2.39-.16,4.74.03,7.06.42,4.89,1.19,9.71,3.7,14.06,1.21,2.1,2.5,4.15,3.67,6.27.41.74.6,1.61.99,2.7-1.81.49-3.31,1.01-4.86,1.28-3.14.56-6.23,1.55-9.53.57-1.99-.59-3.24-1.9-4.4-3.34-3.02-3.75-4.12-8.16-3.73-12.89.37-4.47,1.77-8.7,3.46-12.84.67-1.65,1.42-3.27,1.95-4.96.2-.65.12-1.62-.24-2.18-2.37-3.75-1.25-8.11,2.77-10.08,1.82-.89,2.22-2.38,2.13-4.17-.13-2.81.02-5.67-.46-8.41-.76-4.33-3.4-7.61-6.88-10.18-3.7-2.73-7.46-5.37-11.24-7.99-4.22-2.93-8.46-5.84-12.74-8.67-3.3-2.19-6.68-4.27-10.04-6.36-2.14-1.33-4.32-2.6-6.49-3.87-1.11-.65-3.14-.2-3.87.84-.84,1.2-.76,2.62.48,3.57,1.94,1.5,3.99,2.88,6.04,4.23,3.46,2.27,6.98,4.45,10.45,6.71,3.96,2.58,7.91,5.17,11.83,7.8,3.03,2.03,6.03,4.12,9.02,6.23.39.27.6.81.89,1.22-.43.22-.84.52-1.29.63-.73.17-1.49.28-2.23.29-6.5.16-13,.27-19.5.45-3.41.09-6.83.25-10.24.44-2.22.13-4.44.37-6.66.56-2.88.25-5.29-.88-7.66-2.38-4.08-2.58-8.28-4.97-12.42-7.46-5-3.01-9.99-6.05-14.99-9.06-4.59-2.76-9.21-5.48-13.79-8.26-4.01-2.42-7.96-4.93-11.98-7.33-3.43-2.04-6.98-3.89-10.36-6.01-1.17-.74-2.1-1.96-2.95-3.09-.88-1.17.64-3.28,1.93-3.46,1.62-.23,3.24-.5,4.87-.58,6.56-.31,13.13-.58,19.69-.83,4.04-.15,8.08-.2,12.11-.35,6.13-.23,12.26-.53,18.39-.76,4.32-.16,8.65-.26,12.97-.4,3.15-.11,6.3-.2,9.44-.4,2.72-.17,5.15.55,7.45,1.93,4.92,2.97,9.86,5.92,14.79,8.89,4.09,2.47,8.16,4.97,12.25,7.43,4.76,2.87,9.55,5.69,14.31,8.56,4.43,2.66,8.82,5.38,13.25,8.03,3.06,1.84,6.19,3.57,9.23,5.44.87.54,1.68,1.29,2.3,2.11,1.29,1.73.27,4.26-1.87,4.45-3.35.3-6.73.38-10.09.53-2.61.11-5.23.18-7.62.26Z"/><path class="cls-9" d="m180.42,80.72c-1.43.76-2.79,1.81-4.31,2.22-3.25.87-6.58,1.47-9.9,2.06-1.49.26-3.05.4-4.55.28-4.95-.39-9.93-.69-14.84-1.46-5.65-.89-11.29-1.99-16.81-3.46-5.51-1.47-10.91-3.37-16.27-5.34-6.46-2.38-12.52-5.6-18.11-9.63-2.91-2.1-5.9-4.17-7.8-7.33-1.34-2.23-2.16-4.42-1.34-7.3,1.83-6.4,3.24-12.93,4.67-19.43.34-1.55,1.08-1.36,2-.88,2.63,1.36,5.26,2.74,7.84,4.18,3.24,1.81,6.44,3.68,9.65,5.56,5.59,3.27,11.18,6.56,16.75,9.86,3.19,1.89,6.36,3.83,9.54,5.73.22.13.52.19.78.18,1.14-.02,2.29-.09,3.43-.1,10.61-.1,21.22-.15,31.82-.31,4.2-.06,8.4-.41,12.6-.54,2.72-.09,3.59,1.23,3.16,3.89-1.02,6.39-3.28,12.31-6.3,17.98-.19.36-.22.81-.33,1.21,0,0,.02-.02.02-.02-.1.2-.2.4-.3.6l.02-.03c-.2.2-.4.39-.6.59,0,0,0,0,0,0-.1.2-.2.4-.3.6,0,0,.01-.02.01-.02-.08.19-.17.38-.25.57-.1.11-.21.22-.31.34Z"/></g><g id="Left_Hat"><path class="cls-5" d="m46.55,125.75c.34.33.83.59.99.99,1.81,4.59,3.57,9.19,5.3,13.81.16.43,0,.98,0,1.47-3.32,2.45-6.67,4.86-9.94,7.38-1.42,1.1-2.86,1.72-4.71,1.8-5.51.23-11.02.67-16.52,1.02-.6.04-1.21,0-2.02-.32,1.15-1.02,2.26-2.08,3.44-3.05,4.28-3.48,8.59-6.93,12.89-10.4.34-.27.62-.61.94-.89.8-.7.91-1.64.18-2.25-.48-.4-1.64-.56-2.13-.25-1.7,1.06-3.31,2.31-4.84,3.61-4.69,3.97-9.4,7.92-13.96,12.04-1.11,1-1.7,2.6-2.52,3.92-.05.2-.1.4-.16.6-.05.28-.09.56-.14.85,0,.57,0,1.14,0,1.72.04.48.07.95.11,1.43.06.29.12.59.18.88.22,1.84,1.18,2.64,3.15,2.61,0,0,0-.02,0-.02.1.15.2.3.3.46,0,0-.01-.02-.01-.02-.05.24-.09.48-.14.71l.18.87c-.12,1.07-.24,2.14-.36,3.2.84,1.58,1.68,3.17,2.52,4.75.35,1.19.78,2.36,1.04,3.56.56,2.6.19,5.04-1.36,7.28-.76,1.1-1.77,1.66-3.02,1.66-1.48,0-2.97-.16-4.45-.3-.88-.08-1.19-.54-.71-1.37,2.02-3.52,2.77-7.3,2.51-11.35-.11-1.74-.52-2.62-2.11-3.34-1.7-.78-2.46-2.81-1.52-4.49.6-1.06.58-2.03.35-3.16-.27-1.36-.42-2.76-.41-4.14.01-1.32.3-2.64.51-4.25-2.27.16-4.5.32-6.72.49-.43.03-.89.21-1.28.1-.73-.21-1.41-.58-2.11-.88.33-.68.5-1.54,1.02-1.99,1.6-1.38,3.33-2.59,5.02-3.87,8.19-6.21,16.36-12.45,24.61-18.57,1.05-.78,2.52-1.2,3.84-1.34,4.01-.43,8.04-.64,12.06-.94Z"/><path class="cls-8" d="m54.07,144.98c.59,1.04,1.11,2.11,1.77,3.11,1.81,2.75,3.68,5.46,5.49,8.21.24.36.29.85.43,1.28-1.83,1.13-3.63,2.33-5.51,3.39-7.48,4.22-15.47,7.04-23.98,8.23-1.89.27-3.84.19-5.76.07-2.49-.15-4.57-1.14-5.71-3.53-1.21-2.55-2.53-5.06-3.52-7.7-.67-1.79-.21-2.1,1.72-2.28,6.84-.61,13.66-1.45,20.51-1.83,2.66-.15,4.44-1.46,6.35-2.87,2.74-2.03,5.48-4.06,8.22-6.09Z"/></g></svg>